# xmcd
#
# Track frame offsets:
# 150
# 19925
# 38990
# 56639
# 69267
# 89631
# 106467
# 122842
# 138511
# 157600
# 177186
# 193166
# 209588
# 225672
# 248636
# 265133
# 279637
# 301941
# 320037
#
# Disc length: 4453 seconds
#
# Revision: 0
# Processed by: cddbd v1.5.2PL0 Copyright (c) Steve Scherf et al.
# Submitted via: CoinsHifi v1.9h contact@coinshifi.com
#
DISCID=14116313
DTITLE=plusieurs chanteurs ref cd a 15 copie enregis - plusieurs titres 18
DYEAR=2005
DGENRE=Acoustic
TTITLE0=ok
TTITLE1=ok
TTITLE2=ok
TTITLE3=ok
TTITLE4=ok
TTITLE5=ok
TTITLE6=ok
TTITLE7=ok
TTITLE8=ok
TTITLE9=ok
TTITLE10=ok
TTITLE11=ok
TTITLE12=ok
TTITLE13=ok
TTITLE14=ok
TTITLE15=ok
TTITLE16=ok
TTITLE17=ok
TTITLE18=ok
EXTD=
EXTT0=Medley
EXTT1=Medley
EXTT2=Medley
EXTT3=Medley
EXTT4=Medley
EXTT5=Medley
EXTT6=Medley
EXTT7=Medley
EXTT8=Medley
EXTT9=Medley
EXTT10=Medley
EXTT11=Medley
EXTT12=Medley
EXTT13=Medley
EXTT14=Medley
EXTT15=Medley
EXTT16=Medley
EXTT17=Medley
EXTT18=Medley
PLAYORDER=
